PathFileType	4	(X/Y/Z)	/Users/itak/Documents/Research/Walk-IL/dataset/trc/00114_00007.trc
DataRate	CameraRate	NumFrames	NumMarkers	Units	OrigDataRate	OrigDataStartFrame	OrigNumFrames
100.000000	100.000000	4	53	mm	100.000000	349	559
Frame#	Time	RPSI			LPSI			L3			STRN			T10			C7			CLAV			RBAK			LBAK			LSHO			LUPA			LAEL			LAOL			LWTS			LWPS			LFRA			LIFD			LHPS			LHTS			RSHO			RUPA			RAEL			RAOL			RWTS			RWPS			RFRA			RIFD			RHTS			RHPS			RBHD			LFHD			RFHD			LBHD			LHIP			RHIP			RASI			LASI			LKNE			LTHI			LANK			LTIP			LTOE			LMT1			LMT5			LHEE			RKNE			RTHI			RANK			RTIP			RTOE			RMT1			RMT5			RHEE			
		X1	Y1	Z1	X2	Y2	Z2	X3	Y3	Z3	X4	Y4	Z4	X5	Y5	Z5	X6	Y6	Z6	X7	Y7	Z7	X8	Y8	Z8	X9	Y9	Z9	X10	Y10	Z10	X11	Y11	Z11	X12	Y12	Z12	X13	Y13	Z13	X14	Y14	Z14	X15	Y15	Z15	X16	Y16	Z16	X17	Y17	Z17	X18	Y18	Z18	X19	Y19	Z19	X20	Y20	Z20	X21	Y21	Z21	X22	Y22	Z22	X23	Y23	Z23	X24	Y24	Z24	X25	Y25	Z25	X26	Y26	Z26	X27	Y27	Z27	X28	Y28	Z28	X29	Y29	Z29	X30	Y30	Z30	X31	Y31	Z31	X32	Y32	Z32	X33	Y33	Z33	X34	Y34	Z34	X35	Y35	Z35	X36	Y36	Z36	X37	Y37	Z37	X38	Y38	Z38	X39	Y39	Z39	X40	Y40	Z40	X41	Y41	Z41	X42	Y42	Z42	X43	Y43	Z43	X44	Y44	Z44	X45	Y45	Z45	X46	Y46	Z46	X47	Y47	Z47	X48	Y48	Z48	X49	Y49	Z49	X50	Y50	Z50	X51	Y51	Z51	X52	Y52	Z52	X53	Y53	Z53	

350	3.49	-807.2996215820312	1115.823608398438	-273.4367980957031	-804.2296752929688	1116.508178710938	-409.2893981933594	-811.720947265625	1156.760986328125	-346.1826171875	-576.6015014648438	1351.150268554688	-340.8905334472656	-836.724609375	1311.797119140625	-354.8540649414062	-781.7939453125	1601.68017578125	-376.1579284667969	-605.031982421875	1487.74658203125	-348.1915588378906	-849.8258666992188	1421.670776367188	-287.7962646484375	-780.359375	1580.234619140625	-478.0629577636719	-687.613037109375	1561.341796875	-536.30029296875	-699.9780883789062	1428.285400390625	-605.2982788085938	-679.8314819335938	1209.415893554688	-622.7474365234375	-749.9617309570312	1195.6357421875	-572.9910278320312	-575.60693359375	956.8684692382812	-565.2653198242188	-652.6741333007812	927.2425537109375	-599.4222412109375	-658.8744506835938	1093.847412109375	-623.2431640625	-556.6315307617188	764.8013916015625	-540.4015502929688	-619.9388427734375	853.7954711914062	-596.7977905273438	-554.9910888671875	868.48876953125	-573.450927734375	-741.2822875976562	1584.499755859375	-189.2059173583984	-767.36376953125	1514.565307617188	-125.0003051757812	-808.1332397460938	1225.417846679688	-97.82408142089844	-797.9886474609375	1219.960327148438	-194.9734344482422	-695.0345458984375	969.5729370117188	-71.59765625	-775.2476806640625	961.684814453125	-57.61772918701172	-796.7469482421875	1151.598510742188	-76.12973785400391	-685.8785400390625	773.3642578125	-78.00022888183594	-678.7823486328125	859.942626953125	-55.08561325073242	-751.0645751953125	859.4833374023438	-40.80094909667969	-742.635009765625	1763.900268554688	-290.3215026855469	-578.6766967773438	1836.678100585938	-416.6835632324219	-583.6447143554688	1840.7138671875	-286.7654724121094	-745.7611694335938	1763.5751953125	-426.0680236816406	-707.9322509765625	1027.44091796875	-514.8445434570312	-678.8318481445312	1026.092895507812	-150.8269805908203	-597.9679565429688	1099.53369140625	-207.1511688232422	-601.2693481445312	1091.092651367188	-470.32666015625	-641.1780395507812	515.9044799804688	-498.3926086425781	-671.2442016601562	668.677001953125	-518.7847290039062	-1028.923706054688	139.9141082763672	-507.2050476074219	-863.3284912109375	353.5809326171875	-528.3464965820312	-846.635498046875	33.38449096679688	-429.9875793457031	-908.3275756835938	74.25487518310547	-402.593994140625	-939.8822631835938	52.68875885009766	-511.1653442382812	-1078.088256835938	197.0301971435547	-452.0186157226562	-586.2295532226562	542.25537109375	-193.3809814453125	-623.9634399414062	817.4340209960938	-155.8585510253906	-584.1198120117188	25.3758602142334	-235.9448089599609	-582.7532348632812	407.2020874023438	-186.6072082519531	-353.4866943359375	54.0091438293457	-290.2676696777344	-413.3757629394531	42.83233261108398	-333.8675842285156	-447.1732788085938	42.01776885986328	-219.8516235351562	-642.0882568359375	30.98066520690918	-285.473388671875	
351	3.5	-815.938232421875	1114.929321289062	-274.7057800292969	-812.8023681640625	1115.562377929688	-410.5668640136719	-820.1804809570312	1155.827758789062	-347.5602722167969	-584.9710693359375	1349.80078125	-342.4686279296875	-845.0420532226562	1310.828125	-356.503662109375	-789.8793334960938	1600.5732421875	-378.1381225585938	-613.2767333984375	1486.435546875	-349.850830078125	-858.0933227539062	1420.685424804688	-289.6911315917969	-788.3368530273438	1579.0498046875	-480.0261535644531	-695.5274047851562	1560.032348632812	-538.09228515625	-707.5663452148438	1426.909545898438	-606.93017578125	-686.53076171875	1208.047485351562	-624.0431518554688	-756.7703247070312	1194.076782226562	-574.5401611328125	-581.421875	956.0812377929688	-565.7366943359375	-658.1607055664062	926.0304565429688	-600.0947875976562	-665.0892333984375	1092.562622070312	-624.2711791992188	-561.6909790039062	764.1463623046875	-540.473388671875	-625.1365966796875	852.747802734375	-597.2710571289062	-560.4033203125	867.7501831054688	-573.6929321289062	-749.618408203125	1583.498168945312	-191.1014099121094	-775.790283203125	1513.566528320312	-126.9367446899414	-816.3790893554688	1224.324584960938	-99.88359069824219	-806.1273803710938	1218.91015625	-197.0084838867188	-702.4148559570312	968.9531860351562	-73.34999084472656	-782.6174926757812	960.66015625	-59.59075164794922	-804.8074340820312	1150.526245117188	-78.16585540771484	-691.92578125	772.9108276367188	-80.11582946777344	-685.5520629882812	859.4579467773438	-56.90366744995117	-757.9059448242188	858.5044555664062	-42.84524917602539	-751.07177734375	1762.473266601562	-292.0802001953125	-586.766357421875	1835.740478515625	-417.7513122558594	-592.1546630859375	1839.4580078125	-287.8518371582031	-753.7728271484375	1762.499877929688	-427.8119201660156	-716.7388305664062	1026.3046875	-516.2537231445312	-687.3719482421875	1025.06005859375	-152.0904388427734	-606.6326293945312	1098.234252929688	-208.8692474365234	-610.1717529296875	1089.58203125	-471.8649597167969	-657.5234985351562	514.2951049804688	-497.6766052246094	-685.2050170898438	667.0971069335938	-519.1478271484375	-1040.555786132812	133.5250396728516	-506.7743225097656	-877.2327880859375	349.0700378417969	-528.4434204101562	-857.68798828125	33.14478302001953	-425.8157043457031	-920.6152954101562	70.61543273925781	-400.064208984375	-950.0725708007812	48.13040542602539	-508.8763732910156	-1091.120483398438	190.8087310791016	-452.756591796875	-591.9471435546875	541.9794921875	-193.5394592285156	-631.5595092773438	816.7506103515625	-156.6679534912109	-584.1558227539062	25.0814208984375	-235.6249084472656	-587.462890625	407.1413879394531	-186.5078125	-353.4351196289062	54.19219207763672	-289.9952087402344	-413.4259643554688	43.62887573242188	-333.7908630371094	-447.1216735839844	41.92893600463867	-219.7492065429688	-642.159423828125	30.84449577331543	-285.072021484375	
352	3.51	-824.8434448242188	1113.98486328125	-276.0392761230469	-821.597412109375	1114.591552734375	-411.9205322265625	-828.8510131835938	1154.8681640625	-349.0158386230469	-593.4564208984375	1348.349487304688	-344.1203002929688	-853.49267578125	1309.840454101562	-358.2346801757812	-797.9725341796875	1599.42236328125	-380.1657104492188	-621.5618896484375	1485.037231445312	-351.591064453125	-866.4364013671875	1419.677490234375	-291.6396484375	-796.3433837890625	1577.85205078125	-482.0384826660156	-703.4956665039062	1558.696899414062	-539.9501953125	-715.2389526367188	1425.510864257812	-608.624755859375	-693.3212280273438	1206.644165039062	-625.3849487304688	-763.6795654296875	1192.492431640625	-576.1530151367188	-587.305908203125	955.3013916015625	-566.1785278320312	-663.701171875	924.8084106445312	-600.7452392578125	-671.3687744140625	1091.252563476562	-625.3162231445312	-566.8202514648438	763.4957885742188	-540.45068359375	-630.3867797851562	851.6893920898438	-597.6832275390625	-565.9229125976562	866.9912719726562	-573.9132080078125	-757.9612426757812	1582.41650390625	-193.0465698242188	-784.2064208984375	1512.464965820312	-128.9452667236328	-824.585693359375	1223.135864257812	-101.9782562255859	-814.2239990234375	1217.753784179688	-199.0719909667969	-709.6911010742188	968.2691040039062	-75.14027404785156	-789.8761596679688	959.5667114257812	-61.55390167236328	-812.8052368164062	1149.368530273438	-80.21718597412109	-697.965576171875	772.3621215820312	-82.17411041259766	-692.2312622070312	858.8843383789062	-58.746826171875	-764.6343383789062	857.4632568359375	-44.88574600219727	-759.5037231445312	1761.030639648438	-293.8734436035156	-594.8232421875	1834.698974609375	-418.9030151367188	-600.609375	1838.12255859375	-289.0263061523438	-761.7898559570312	1761.382690429688	-429.5861206054688	-725.760009765625	1025.119140625	-517.7371215820312	-696.200439453125	1023.886108398438	-153.4130554199219	-615.5795288085938	1096.811889648438	-210.6397857666016	-619.237060546875	1087.994384765625	-473.4837646484375	-673.9974365234375	512.8037719726562	-496.8927917480469	-699.349853515625	665.5782470703125	-519.4739990234375	-1050.908203125	126.434211730957	-506.2064819335938	-890.8112182617188	344.0538330078125	-528.4171752929688	-866.522216796875	33.32928085327148	-422.3958129882812	-930.9873046875	66.81039428710938	-397.9884033203125	-958.3440551757812	43.91553115844727	-507.1612548828125	-1103.301513671875	183.1931304931641	-453.0854797363281	-597.7528076171875	541.682373046875	-193.8266296386719	-639.37548828125	815.9671630859375	-157.5690460205078	-584.1704711914062	24.78205680847168	-235.2821807861328	-592.2664184570312	407.0603637695312	-186.5073394775391	-353.4212341308594	54.31287002563477	-289.7705688476562	-413.5147399902344	44.40386581420898	-333.7268371582031	-447.0464782714844	41.8368034362793	-219.6562347412109	-642.2122192382812	30.66921806335449	-284.6399536132812	
353	3.52	-834.0360717773438	1112.988037109375	-277.4345092773438	-830.619140625	1113.595581054688	-413.3465576171875	-837.7452392578125	1153.887451171875	-350.5457153320312	-602.0580444335938	1346.802978515625	-345.8356628417969	-862.0894165039062	1308.844482421875	-360.0504455566406	-806.0601806640625	1598.239624023438	-382.2364196777344	-629.8765869140625	1483.556274414062	-353.4044189453125	-874.861083984375	1418.656372070312	-293.6474914550781	-804.3603515625	1576.651611328125	-484.1006469726562	-711.4971923828125	1557.33984375	-541.8674926757812	-722.9755859375	1424.092895507812	-610.37890625	-700.1947631835938	1205.208862304688	-626.7752075195312	-770.6956176757812	1190.887573242188	-577.8382568359375	-593.2747802734375	954.5272216796875	-566.5908813476562	-669.3070678710938	923.5783081054688	-601.3786010742188	-677.7164306640625	1089.919067382812	-626.37939453125	-572.0115966796875	762.8533935546875	-540.3348388671875	-635.6968994140625	850.6251220703125	-598.0367431640625	-571.5473022460938	866.2223510742188	-574.1065673828125	-766.3074340820312	1581.254150390625	-195.0383148193359	-792.6143188476562	1511.258666992188	-131.0218048095703	-832.7680053710938	1221.85009765625	-104.103889465332	-822.2801513671875	1216.487060546875	-201.1573181152344	-716.8837280273438	967.5137939453125	-76.95188903808594	-797.0448608398438	958.40283203125	-63.49922180175781	-820.7577514648438	1148.122192382812	-82.27646636962891	-704.0167846679688	771.7123413085938	-84.14399719238281	-698.8524169921875	858.2197265625	-60.58860397338867	-771.275634765625	856.3624267578125	-46.90330505371094	-767.9191284179688	1759.577758789062	-295.7009887695312	-602.8448486328125	1833.566650390625	-420.1379699707031	-609.0054931640625	1836.719482421875	-290.2854919433594	-769.8065185546875	1760.228271484375	-431.3914184570312	-734.9974975585938	1023.891967773438	-519.2816772460938	-705.3380737304688	1022.567138671875	-154.7878265380859	-624.8226928710938	1095.283081054688	-212.432861328125	-628.4517211914062	1086.334594726562	-475.1650390625	-690.5079956054688	511.4366760253906	-496.1169128417969	-713.5963134765625	664.1448974609375	-519.7835083007812	-1060.045776367188	118.9301986694336	-505.4244079589844	-904.0936889648438	338.6922607421875	-528.2417602539062	-873.1857299804688	33.79646682739258	-419.6896667480469	-939.4354248046875	63.16788864135742	-396.318115234375	-964.7998657226562	40.28845596313477	-505.9497985839844	-1114.661987304688	174.4507141113281	-452.9159545898438	-603.6329956054688	541.3810424804688	-194.2406311035156	-647.4155883789062	815.0853271484375	-158.546875	-584.1504516601562	24.47658538818359	-234.9028472900391	-597.14111328125	406.9759826660156	-186.6024932861328	-353.4542541503906	54.41965103149414	-289.5928955078125	-413.6558532714844	45.18700408935547	-333.6641235351562	-446.9456176757812	41.74322128295898	-219.5640258789062	-642.2405395507812	30.45159530639648	-284.1630554199219	
